<?xml version="1.0" encoding="UTF-8" standalone="no"?>
<!-- Created with Inkscape (http://www.inkscape.org/) -->

<svg
   xmlns:dc="http://purl.org/dc/elements/1.1/"
   xmlns:cc="http://creativecommons.org/ns#"
   xmlns:rdf="http://www.w3.org/1999/02/22-rdf-syntax-ns#"
   xmlns:svg="http://www.w3.org/2000/svg"
   xmlns="http://www.w3.org/2000/svg"
   xmlns:sodipodi="http://sodipodi.sourceforge.net/DTD/sodipodi-0.dtd"
   xmlns:inkscape="http://www.inkscape.org/namespaces/inkscape"
   width="8.9222794mm"
   height="22.775333mm"
   viewBox="0 0 8.9222794 22.775333"
   version="1.1"
   id="svg4961"
   inkscape:version="0.92.5 (2060ec1f9f, 2020-04-08)"
   sodipodi:docname="temp_cold.svg">
  <defs
     id="defs4955" />
  <sodipodi:namedview
     id="base"
     pagecolor="#ffffff"
     bordercolor="#666666"
     borderopacity="1.0"
     inkscape:pageopacity="0.0"
     inkscape:pageshadow="2"
     inkscape:zoom="0.35"
     inkscape:cx="1468.2896"
     inkscape:cy="-576.96001"
     inkscape:document-units="mm"
     inkscape:current-layer="layer1"
     showgrid="false"
     inkscape:window-width="1857"
     inkscape:window-height="1057"
     inkscape:window-x="-8"
     inkscape:window-y="-8"
     inkscape:window-maximized="1" />
  <metadata
     id="metadata4958">
    <rdf:RDF>
      <cc:Work
         rdf:about="">
        <dc:format>image/svg+xml</dc:format>
        <dc:type
           rdf:resource="http://purl.org/dc/dcmitype/StillImage" />
        <dc:title></dc:title>
      </cc:Work>
    </rdf:RDF>
  </metadata>
  <g
     inkscape:label="Layer 1"
     inkscape:groupmode="layer"
     id="layer1"
     transform="translate(282.65162,26.596002)">
    <g
       transform="matrix(0.26458333,0,0,0.26458333,-468.11051,-115.56982)"
       id="g4260">
      <path
         d="m 717.808,422.359 c -9.297,0 -16.861,-7.564 -16.861,-16.861 0,-5.574 2.799,-10.803 7.381,-13.928 v -45.811 c 0,-5.227 4.253,-9.48 9.48,-9.48 5.227,0 9.48,4.253 9.48,9.48 v 45.811 c 4.582,3.125 7.381,8.354 7.381,13.928 10e-4,9.297 -7.564,16.861 -16.861,16.861 z m 0,-81.882 c -2.912,0 -5.281,2.369 -5.281,5.281 v 48.179 l -1.047,0.607 c -3.907,2.263 -6.334,6.46 -6.334,10.953 0,6.982 5.68,12.662 12.662,12.662 6.982,0 12.662,-5.68 12.662,-12.662 0,-4.493 -2.427,-8.691 -6.334,-10.953 l -1.047,-0.607 v -48.179 c 10e-4,-2.912 -2.369,-5.281 -5.281,-5.281 z"
         id="path4248"
         inkscape:connector-curvature="0"
         style="fill:#01579b" />
      <path
         d="m 725.189,360.094 h -7.381 c -1.16,0 -2.099,-0.94 -2.099,-2.1 0,-1.159 0.94,-2.099 2.099,-2.099 h 7.381 c 1.16,0 2.099,0.94 2.099,2.099 10e-4,1.16 -0.939,2.1 -2.099,2.1 z"
         id="path4250"
         inkscape:connector-curvature="0"
         style="fill:#01579b" />
      <path
         d="m 725.189,369.755 h -7.381 c -1.16,0 -2.099,-0.94 -2.099,-2.099 0,-1.159 0.94,-2.099 2.099,-2.099 h 7.381 c 1.16,0 2.099,0.94 2.099,2.099 10e-4,1.159 -0.939,2.099 -2.099,2.099 z"
         id="path4252"
         inkscape:connector-curvature="0"
         style="fill:#01579b" />
      <path
         d="m 725.189,379.417 h -7.381 c -1.16,0 -2.099,-0.94 -2.099,-2.099 0,-1.159 0.94,-2.1 2.099,-2.1 h 7.381 c 1.16,0 2.099,0.94 2.099,2.1 10e-4,1.159 -0.939,2.099 -2.099,2.099 z"
         id="path4254"
         inkscape:connector-curvature="0"
         style="fill:#01579b" />
      <circle
         cx="717.80798"
         cy="405.21201"
         r="7.381"
         id="circle4256"
         style="fill:#01579b" />
      <path
         d="m 717.808,407.311 c -1.16,0 -2.099,-0.94 -2.099,-2.099 V 385.85 c 0,-1.159 0.94,-2.099 2.099,-2.099 1.16,0 2.099,0.94 2.099,2.099 v 19.361 c 10e-4,1.16 -0.939,2.1 -2.099,2.1 z"
         id="path4258"
         inkscape:connector-curvature="0"
         style="fill:#01579b" />
    </g>
  </g>
</svg>
