<?xml version="1.0" encoding="UTF-8" standalone="no"?>
<!-- Created with Inkscape (http://www.inkscape.org/) -->

<svg
   xmlns:dc="http://purl.org/dc/elements/1.1/"
   xmlns:cc="http://creativecommons.org/ns#"
   xmlns:rdf="http://www.w3.org/1999/02/22-rdf-syntax-ns#"
   xmlns:svg="http://www.w3.org/2000/svg"
   xmlns="http://www.w3.org/2000/svg"
   xmlns:sodipodi="http://sodipodi.sourceforge.net/DTD/sodipodi-0.dtd"
   xmlns:inkscape="http://www.inkscape.org/namespaces/inkscape"
   width="26.570517mm"
   height="18.124752mm"
   viewBox="0 0 26.570517 18.124752"
   version="1.1"
   id="svg4535"
   inkscape:version="0.92.5 (2060ec1f9f, 2020-04-08)"
   sodipodi:docname="mostly_cloud.svg">
  <defs
     id="defs4529" />
  <sodipodi:namedview
     id="base"
     pagecolor="#ffffff"
     bordercolor="#666666"
     borderopacity="1.0"
     inkscape:pageopacity="0.0"
     inkscape:pageshadow="2"
     inkscape:zoom="0.35"
     inkscape:cx="850.21202"
     inkscape:cy="-425.7485"
     inkscape:document-units="mm"
     inkscape:current-layer="layer1"
     showgrid="false"
     inkscape:window-width="1857"
     inkscape:window-height="1057"
     inkscape:window-x="-8"
     inkscape:window-y="-8"
     inkscape:window-maximized="1" />
  <metadata
     id="metadata4532">
    <rdf:RDF>
      <cc:Work
         rdf:about="">
        <dc:format>image/svg+xml</dc:format>
        <dc:type
           rdf:resource="http://purl.org/dc/dcmitype/StillImage" />
        <dc:title></dc:title>
      </cc:Work>
    </rdf:RDF>
  </metadata>
  <g
     inkscape:label="Layer 1"
     inkscape:groupmode="layer"
     id="layer1"
     transform="translate(119.1186,-18.062625)">
    <g
       transform="matrix(0.26458333,0,0,0.26458333,-214.28287,-30.353479)"
       id="g4078">
      <g
         id="g4070">
        <circle
           cx="392.16101"
           cy="209.701"
           r="17.247999"
           id="circle4052"
           style="fill:#ffff00" />
        <path
           d="m 393.65,189.661 c 0,0.377 -0.611,0.682 -1.364,0.682 v 0 c -0.754,0 -1.365,-0.305 -1.365,-0.682 v -5.989 c 0,-0.377 0.611,-0.682 1.365,-0.682 v 0 c 0.753,0 1.364,0.305 1.364,0.682 z"
           id="path4054"
           inkscape:connector-curvature="0"
           style="fill:#ffff00" />
        <path
           d="m 407.384,196.583 c -0.267,0.267 -0.915,0.05 -1.447,-0.482 v 0 c -0.533,-0.533 -0.749,-1.181 -0.483,-1.448 l 4.235,-4.234 c 0.267,-0.266 0.915,-0.05 1.448,0.483 v 0 c 0.532,0.533 0.749,1.181 0.482,1.447 z"
           id="path4056"
           inkscape:connector-curvature="0"
           style="fill:#ffff00" />
        <path
           d="m 412.2,211.19 c -0.377,0 -0.682,-0.612 -0.682,-1.365 v 0 c 0,-0.754 0.305,-1.366 0.682,-1.366 h 5.989 c 0.376,0 0.682,0.611 0.682,1.366 v 0 c 0,0.753 -0.306,1.365 -0.682,1.365 z"
           id="path4058"
           inkscape:connector-curvature="0"
           style="fill:#ffff00" />
        <path
           d="m 405.278,224.924 c -0.267,-0.267 -0.05,-0.915 0.482,-1.447 v 0 c 0.533,-0.533 1.181,-0.75 1.448,-0.483 l 4.235,4.235 c 0.266,0.267 0.05,0.915 -0.483,1.448 v 0 c -0.532,0.533 -1.181,0.749 -1.447,0.483 z"
           id="path4060"
           inkscape:connector-curvature="0"
           style="fill:#ffff00" />
        <path
           d="m 390.672,229.74 c 0,-0.377 0.612,-0.682 1.365,-0.682 v 0 c 0.754,0 1.365,0.305 1.365,0.682 v 5.989 c 0,0.377 -0.611,0.682 -1.365,0.682 v 0 c -0.753,0 -1.365,-0.305 -1.365,-0.682 z"
           id="path4062"
           inkscape:connector-curvature="0"
           style="fill:#ffff00" />
        <path
           d="m 376.938,222.818 c 0.267,-0.266 0.915,-0.05 1.448,0.483 v 0 c 0.533,0.533 0.75,1.181 0.483,1.448 l -4.235,4.234 c -0.266,0.267 -0.915,0.05 -1.448,-0.483 v 0 c -0.533,-0.533 -0.749,-1.181 -0.483,-1.447 z"
           id="path4064"
           inkscape:connector-curvature="0"
           style="fill:#ffff00" />
        <path
           d="m 372.121,208.212 c 0.377,0 0.682,0.611 0.682,1.364 v 0 c 0,0.754 -0.306,1.366 -0.682,1.366 h -5.989 c -0.377,0 -0.682,-0.611 -0.682,-1.366 v 0 c 0,-0.753 0.305,-1.364 0.682,-1.364 z"
           id="path4066"
           inkscape:connector-curvature="0"
           style="fill:#ffff00" />
        <path
           d="m 379.044,194.477 c 0.267,0.267 0.05,0.915 -0.482,1.448 v 0 c -0.533,0.533 -1.182,0.75 -1.448,0.483 l -4.234,-4.235 c -0.267,-0.266 -0.05,-0.915 0.483,-1.448 v 0 c 0.533,-0.533 1.181,-0.749 1.447,-0.482 z"
           id="path4068"
           inkscape:connector-curvature="0"
           style="fill:#ffff00" />
      </g>
      <g
         id="g4076">
        <path
           d="m 433.966,199.225 c -8.4,0 -15.869,3.968 -20.649,10.126 -3.281,-1.864 -7.073,-2.935 -11.117,-2.935 -7.012,0 -13.276,3.203 -17.409,8.225 -1.935,-0.667 -4.01,-1.034 -6.172,-1.034 -10.462,0 -18.943,8.481 -18.943,18.943 0,10.462 8.481,18.943 18.943,18.943 4.204,0 19.02,0 23.582,0 5.864,0 25.484,0 31.766,0 14.433,0 26.133,-11.7 26.133,-26.134 0,-14.434 -11.7,-26.134 -26.134,-26.134 z"
           id="path4072"
           inkscape:connector-curvature="0"
           style="fill:#ffffff" />
        <path
           d="m 433.966,206.223 c 10.551,0 19.135,8.584 19.135,19.135 0,10.551 -8.584,19.135 -19.135,19.135 H 402.2 378.618 c -6.586,0 -11.944,-5.358 -11.944,-11.945 0,-6.587 5.358,-11.944 11.944,-11.944 1.327,0 2.637,0.219 3.892,0.652 l 4.595,1.584 3.089,-3.752 c 2.968,-3.606 7.344,-5.674 12.006,-5.674 2.684,0 5.333,0.699 7.66,2.021 l 5.269,2.994 3.716,-4.787 c 3.66,-4.715 9.172,-7.419 15.121,-7.419 m 0,-6.998 c -8.4,0 -15.869,3.968 -20.649,10.126 -3.281,-1.864 -7.073,-2.935 -11.117,-2.935 -7.012,0 -13.276,3.203 -17.409,8.225 -1.935,-0.667 -4.01,-1.034 -6.172,-1.034 -10.462,0 -18.943,8.481 -18.943,18.943 0,10.462 8.481,18.943 18.943,18.943 4.204,0 19.02,0 23.582,0 5.865,0 25.484,0 31.766,0 14.433,0 26.133,-11.7 26.133,-26.134 0,-14.434 -11.7,-26.134 -26.134,-26.134 z"
           id="path4074"
           inkscape:connector-curvature="0"
           style="fill:#9e9e9e" />
      </g>
    </g>
  </g>
</svg>
