<?xml version="1.0" encoding="UTF-8" standalone="no"?>
<!-- Created with Inkscape (http://www.inkscape.org/) -->

<svg
   xmlns:dc="http://purl.org/dc/elements/1.1/"
   xmlns:cc="http://creativecommons.org/ns#"
   xmlns:rdf="http://www.w3.org/1999/02/22-rdf-syntax-ns#"
   xmlns:svg="http://www.w3.org/2000/svg"
   xmlns="http://www.w3.org/2000/svg"
   xmlns:sodipodi="http://sodipodi.sourceforge.net/DTD/sodipodi-0.dtd"
   xmlns:inkscape="http://www.inkscape.org/namespaces/inkscape"
   width="17.034933mm"
   height="24.342991mm"
   viewBox="0 0 17.034933 24.342991"
   version="1.1"
   id="svg4624"
   inkscape:version="0.92.5 (2060ec1f9f, 2020-04-08)"
   sodipodi:docname="humidity.svg">
  <defs
     id="defs4618" />
  <sodipodi:namedview
     id="base"
     pagecolor="#ffffff"
     bordercolor="#666666"
     borderopacity="1.0"
     inkscape:pageopacity="0.0"
     inkscape:pageshadow="2"
     inkscape:zoom="3.959798"
     inkscape:cx="98.067629"
     inkscape:cy="24.598424"
     inkscape:document-units="mm"
     inkscape:current-layer="layer1"
     showgrid="false"
     inkscape:window-width="1857"
     inkscape:window-height="1057"
     inkscape:window-x="-8"
     inkscape:window-y="-8"
     inkscape:window-maximized="1" />
  <metadata
     id="metadata4621">
    <rdf:RDF>
      <cc:Work
         rdf:about="">
        <dc:format>image/svg+xml</dc:format>
        <dc:type
           rdf:resource="http://purl.org/dc/dcmitype/StillImage" />
        <dc:title></dc:title>
      </cc:Work>
    </rdf:RDF>
  </metadata>
  <g
     inkscape:label="Layer 1"
     inkscape:groupmode="layer"
     id="layer1"
     transform="translate(-65.565867,-48.971362)">
    <path
       d="m 81.675023,64.429104 c 0,4.536947 -3.398837,8.214718 -7.591689,8.214718 -4.192588,0 -7.59169,-3.677484 -7.59169,-8.214718 0,-4.53666 7.59169,-15.457742 7.59169,-15.457742 0,0 7.591689,10.921082 7.591689,15.457742 z"
       id="path4218"
       inkscape:connector-curvature="0"
       style="fill:#ffffff;stroke-width:0.27522606" />
    <g
       transform="matrix(0.26458333,0,0,0.26458333,-115.88408,2.524817)"
       id="g4230">
      <g
         id="g4228">
        <path
           d="m 715.19,225.08 c 0,6.241 -3.279,9.34 -7.107,9.34 -3.691,0 -6.877,-2.962 -6.925,-8.93 0,-5.921 3.234,-9.247 7.155,-9.247 4.143,0 6.877,3.19 6.877,8.837 z m -10.842,0.275 c -0.089,3.78 1.32,6.65 3.829,6.65 2.641,0 3.824,-2.824 3.824,-6.741 0,-3.6 -1.046,-6.606 -3.824,-6.606 -2.509,0 -3.829,2.962 -3.829,6.697 z m 3.464,21.5 17.4,-30.611 h 2.552 l -17.403,30.611 z m 26.646,-9.52 c 0,6.241 -3.278,9.338 -7.062,9.338 -3.686,0 -6.876,-2.962 -6.921,-8.884 0,-5.966 3.235,-9.291 7.151,-9.291 4.144,0 6.832,3.188 6.832,8.837 z m -10.841,0.273 c -0.044,3.781 1.413,6.65 3.872,6.65 2.641,0 3.828,-2.824 3.828,-6.741 0,-3.6 -1.05,-6.606 -3.828,-6.606 -2.503,0 -3.872,2.962 -3.872,6.697 z"
           id="path4224"
           inkscape:connector-curvature="0"
           style="fill:#00b0ff" />
        <path
           d="m 710.695,247.428 h -3.869 l 18.052,-31.759 h 3.872 z m -1.897,-1.147 h 1.229 l 16.751,-29.464 h -1.232 z m 18.598,0.966 c -3.695,0 -7.445,-2.923 -7.494,-9.453 0,-6.819 3.88,-9.869 7.725,-9.869 4.568,0 7.406,3.606 7.406,9.41 -10e-4,6.847 -3.836,9.912 -7.637,9.912 z m 0.23,-18.175 c -3.934,0 -6.577,3.504 -6.577,8.717 0.038,5.046 2.53,8.31 6.347,8.31 3.941,0 6.488,-3.44 6.488,-8.764 0,-5.174 -2.339,-8.263 -6.258,-8.263 z m -0.136,15.76 c -0.964,0 -1.85,-0.38 -2.562,-1.101 -1.229,-1.244 -1.915,-3.478 -1.884,-6.13 0,-4.41 1.745,-7.264 4.446,-7.264 2.797,0 4.402,2.617 4.402,7.18 -0.001,4.649 -1.605,7.315 -4.402,7.315 z m 0,-13.347 c -2.279,0 -3.298,3.076 -3.298,6.123 -0.028,2.354 0.538,4.29 1.553,5.317 0.498,0.504 1.085,0.76 1.745,0.76 2.937,0 3.254,-4.313 3.254,-6.167 -10e-4,-1.815 -0.318,-6.033 -3.254,-6.033 z m -19.407,3.509 c -3.695,0 -7.446,-2.937 -7.499,-9.499 0,-5.787 3.179,-9.826 7.729,-9.826 4.596,0 7.451,3.606 7.451,9.411 0,6.848 -3.858,9.914 -7.681,9.914 z m 0.23,-18.177 c -3.936,0 -6.581,3.485 -6.581,8.673 0.041,5.074 2.534,8.356 6.351,8.356 3.969,0 6.533,-3.441 6.533,-8.766 0,-5.174 -2.356,-8.263 -6.303,-8.263 z m -0.137,15.762 c -0.986,0 -1.882,-0.385 -2.594,-1.114 -1.212,-1.24 -1.87,-3.472 -1.808,-6.123 0,-4.403 1.728,-7.258 4.402,-7.258 2.795,0 4.398,2.617 4.398,7.18 0,4.649 -1.603,7.315 -4.398,7.315 z m 0,-13.347 c -2.402,0 -3.254,3.299 -3.254,6.123 -0.055,2.358 0.485,4.288 1.481,5.308 0.498,0.51 1.095,0.769 1.773,0.769 2.934,0 3.25,-4.313 3.25,-6.167 10e-4,-2.254 -0.422,-6.033 -3.25,-6.033 z"
           id="path4226"
           inkscape:connector-curvature="0"
           style="fill:#00b0ff" />
      </g>
    </g>
    <path
       d="m 74.083334,73.314352 c -4.696355,0 -8.517467,-3.820848 -8.517467,-8.517467 0,-4.375679 6.98156,-13.783733 7.777427,-14.841802 l 0.74004,-0.983721 0.740039,0.983721 c 0.795867,1.058333 7.777427,10.466123 7.777427,14.841802 0,4.696619 -3.820848,8.517467 -8.517466,8.517467 z m 0,-21.23784 c -2.374371,3.304646 -6.665648,9.8679 -6.665648,12.720373 0,3.675592 2.99032,6.665912 6.665648,6.665912 3.675591,0 6.665648,-2.99032 6.665648,-6.665912 2.64e-4,-2.854061 -4.291013,-9.416256 -6.665648,-12.720373 z"
       id="path4220"
       inkscape:connector-curvature="0"
       style="fill:#00b0ff;stroke-width:0.26458332" />
  </g>
</svg>
