<?xml version="1.0" encoding="UTF-8" standalone="no"?>
<!-- Created with Inkscape (http://www.inkscape.org/) -->

<svg
   xmlns:dc="http://purl.org/dc/elements/1.1/"
   xmlns:cc="http://creativecommons.org/ns#"
   xmlns:rdf="http://www.w3.org/1999/02/22-rdf-syntax-ns#"
   xmlns:svg="http://www.w3.org/2000/svg"
   xmlns="http://www.w3.org/2000/svg"
   xmlns:sodipodi="http://sodipodi.sourceforge.net/DTD/sodipodi-0.dtd"
   xmlns:inkscape="http://www.inkscape.org/namespaces/inkscape"
   width="26.570517mm"
   height="26.029709mm"
   viewBox="0 0 26.570517 26.029709"
   version="1.1"
   id="svg4874"
   inkscape:version="0.92.5 (2060ec1f9f, 2020-04-08)"
   sodipodi:docname="snow.svg">
  <defs
     id="defs4868" />
  <sodipodi:namedview
     id="base"
     pagecolor="#ffffff"
     bordercolor="#666666"
     borderopacity="1.0"
     inkscape:pageopacity="0.0"
     inkscape:pageshadow="2"
     inkscape:zoom="0.35"
     inkscape:cx="755.92629"
     inkscape:cy="-213.66714"
     inkscape:document-units="mm"
     inkscape:current-layer="layer1"
     showgrid="false"
     inkscape:window-width="1857"
     inkscape:window-height="1057"
     inkscape:window-x="-8"
     inkscape:window-y="-8"
     inkscape:window-maximized="1" />
  <metadata
     id="metadata4871">
    <rdf:RDF>
      <cc:Work
         rdf:about="">
        <dc:format>image/svg+xml</dc:format>
        <dc:type
           rdf:resource="http://purl.org/dc/dcmitype/StillImage" />
        <dc:title></dc:title>
      </cc:Work>
    </rdf:RDF>
  </metadata>
  <g
     inkscape:label="Layer 1"
     inkscape:groupmode="layer"
     id="layer1"
     transform="translate(94.172164,-66.270861)">
    <g
       transform="matrix(0.26458333,0,0,0.26458333,-189.51265,-20.964909)"
       id="g4148">
      <g
         id="g4138">
        <path
           d="m 434.633,329.71 c -8.4,0 -15.869,3.968 -20.65,10.126 -3.282,-1.864 -7.073,-2.935 -11.116,-2.935 -7.013,0 -13.276,3.203 -17.409,8.225 -1.935,-0.667 -4.01,-1.034 -6.173,-1.034 -10.462,0 -18.943,8.481 -18.943,18.943 0,10.462 8.481,18.943 18.943,18.943 4.204,0 19.02,0 23.582,0 5.864,0 25.483,0 31.766,0 14.433,0 26.133,-11.7 26.133,-26.134 0,-14.434 -11.7,-26.134 -26.133,-26.134 z"
           id="path4134"
           inkscape:connector-curvature="0"
           style="fill:#ffffff" />
        <path
           d="m 434.633,336.708 c 10.551,0 19.135,8.584 19.135,19.135 0,10.551 -8.584,19.135 -19.135,19.135 h -31.766 -23.582 c -6.586,0 -11.945,-5.358 -11.945,-11.944 0,-6.586 5.358,-11.944 11.945,-11.944 1.327,0 2.637,0.219 3.893,0.652 l 4.595,1.583 3.089,-3.752 c 2.968,-3.606 7.344,-5.674 12.006,-5.674 2.683,0 5.332,0.699 7.659,2.021 l 5.269,2.993 3.716,-4.787 c 3.659,-4.714 9.171,-7.418 15.121,-7.418 m 0,-6.998 c -8.4,0 -15.869,3.968 -20.65,10.126 -3.282,-1.864 -7.073,-2.935 -11.116,-2.935 -7.013,0 -13.276,3.203 -17.409,8.225 -1.935,-0.667 -4.01,-1.034 -6.173,-1.034 -10.462,0 -18.943,8.481 -18.943,18.943 0,10.462 8.481,18.943 18.943,18.943 4.204,0 19.02,0 23.582,0 5.864,0 25.483,0 31.766,0 14.433,0 26.133,-11.7 26.133,-26.134 0,-14.434 -11.7,-26.134 -26.133,-26.134 z"
           id="path4136"
           inkscape:connector-curvature="0"
           style="fill:#9e9e9e" />
      </g>
      <path
         d="m 409.887,428.09 c -6.202,0 -11.248,-5.046 -11.248,-11.249 0,-6.203 5.046,-11.249 11.248,-11.249 6.202,0 11.249,5.046 11.249,11.249 0,6.203 -5.046,11.249 -11.249,11.249 z m 0,-15.499 c -2.344,0 -4.25,1.907 -4.25,4.25 0,2.344 1.907,4.251 4.25,4.251 2.344,0 4.25,-1.907 4.25,-4.251 10e-4,-2.344 -1.906,-4.25 -4.25,-4.25 z"
         id="path4140"
         inkscape:connector-curvature="0"
         style="fill:#9e9e9e" />
      <g
         id="g4146">
        <path
           d="m 390.69,406.783 c -6.203,0 -11.249,-5.046 -11.249,-11.249 0,-6.203 5.046,-11.249 11.249,-11.249 6.203,0 11.249,5.046 11.249,11.249 0,6.203 -5.046,11.249 -11.249,11.249 z m 0,-15.5 c -2.344,0 -4.25,1.907 -4.25,4.251 0,2.344 1.907,4.25 4.25,4.25 2.343,0 4.25,-1.907 4.25,-4.25 10e-4,-2.344 -1.906,-4.251 -4.25,-4.251 z"
           id="path4142"
           inkscape:connector-curvature="0"
           style="fill:#9e9e9e" />
        <path
           d="m 429.084,406.783 c -6.203,0 -11.248,-5.046 -11.248,-11.249 0,-6.203 5.046,-11.249 11.248,-11.249 6.202,0 11.249,5.046 11.249,11.249 0,6.203 -5.046,11.249 -11.249,11.249 z m 0,-15.5 c -2.343,0 -4.25,1.907 -4.25,4.251 0,2.344 1.907,4.25 4.25,4.25 2.344,0 4.251,-1.907 4.251,-4.25 0,-2.344 -1.907,-4.251 -4.251,-4.251 z"
           id="path4144"
           inkscape:connector-curvature="0"
           style="fill:#9e9e9e" />
      </g>
    </g>
  </g>
</svg>
